<svg width="370" height="101" viewBox="0 0 370 101" fill="none" xmlns="http://www.w3.org/2000/svg">
<path d="M35.1288 23.8398L45.1667 49.4151L56.2482 23.8398H87.1082C86.5647 23.3764 85.9776 22.9637 85.3616 22.5944L48.6165 0.704798C46.377 -0.0699895 43.4273 -0.439281 41.2675 0.842377L3.36286 23.3692C3.13819 23.5067 2.92801 23.666 2.72508 23.8326H35.1288V23.8398Z" fill="#EE4000"/>
<path d="M0.144951 28.8578C0.079723 29.2851 0.0434853 29.7123 0.0434853 30.1323L0 72.036C0 76.1778 1.95684 78.3936 5.26172 80.3631L39.4919 100.703L0.144951 28.8578Z" fill="white"/>
<path d="M89.9203 28.7058L50.0588 101L86.6661 79.1539C88.7027 77.9374 90 75.0265 90 72.6442L89.9783 29.6037C89.9783 29.2923 89.9493 28.9954 89.913 28.6985L89.9203 28.7058Z" fill="white"/>
<path d="M133.087 79L113.42 29.087H123.857L139.051 69.486H135.004L150.34 29.087H160.635L140.755 79H133.087ZM175.923 79.71C172.326 79.71 169.131 78.9527 166.338 77.438C163.546 75.876 161.321 73.746 159.664 71.048C158.055 68.35 157.25 65.2733 157.25 61.818C157.25 58.41 158.031 55.3807 159.593 52.73C161.203 50.032 163.38 47.902 166.125 46.34C168.871 44.7307 171.924 43.926 175.284 43.926C178.598 43.926 181.509 44.6833 184.017 46.198C186.573 47.6653 188.561 49.7007 189.981 52.304C191.449 54.86 192.182 57.771 192.182 61.037C192.182 61.6523 192.135 62.2913 192.04 62.954C191.993 63.5693 191.875 64.2793 191.685 65.084L162.859 65.155V58.197L187.354 58.126L183.591 61.037C183.497 59.0017 183.118 57.2977 182.455 55.925C181.84 54.5523 180.917 53.511 179.686 52.801C178.503 52.0437 177.036 51.665 175.284 51.665C173.438 51.665 171.829 52.091 170.456 52.943C169.084 53.7477 168.019 54.9073 167.261 56.422C166.551 57.8893 166.196 59.6407 166.196 61.676C166.196 63.7587 166.575 65.581 167.332 67.143C168.137 68.6577 169.273 69.841 170.74 70.693C172.208 71.4977 173.912 71.9 175.852 71.9C177.604 71.9 179.189 71.616 180.609 71.048C182.029 70.4327 183.26 69.5333 184.301 68.35L189.768 73.817C188.112 75.7577 186.076 77.225 183.662 78.219C181.296 79.213 178.716 79.71 175.923 79.71ZM197.934 79V27.667H207.235V79H197.934ZM231.593 79.71C228.138 79.71 225.014 78.929 222.221 77.367C219.476 75.7577 217.275 73.604 215.618 70.906C214.009 68.1607 213.204 65.1077 213.204 61.747C213.204 58.3863 214.009 55.3807 215.618 52.73C217.228 50.032 219.429 47.902 222.221 46.34C225.014 44.7307 228.114 43.926 231.522 43.926C235.025 43.926 238.149 44.7307 240.894 46.34C243.687 47.902 245.888 50.032 247.497 52.73C249.107 55.3807 249.911 58.3863 249.911 61.747C249.911 65.1077 249.107 68.1607 247.497 70.906C245.888 73.604 243.687 75.7577 240.894 77.367C238.149 78.929 235.049 79.71 231.593 79.71ZM231.522 71.048C233.274 71.048 234.812 70.6693 236.137 69.912C237.51 69.1073 238.551 68.0187 239.261 66.646C240.019 65.226 240.397 63.6167 240.397 61.818C240.397 60.0193 240.019 58.4337 239.261 57.061C238.504 55.6883 237.463 54.6233 236.137 53.866C234.812 53.0613 233.274 52.659 231.522 52.659C229.818 52.659 228.304 53.0613 226.978 53.866C225.653 54.6233 224.612 55.6883 223.854 57.061C223.097 58.4337 222.718 60.0193 222.718 61.818C222.718 63.6167 223.097 65.226 223.854 66.646C224.612 68.0187 225.653 69.1073 226.978 69.912C228.304 70.6693 229.818 71.048 231.522 71.048ZM272.087 79.71C268.585 79.71 265.437 78.929 262.644 77.367C259.852 75.805 257.651 73.675 256.041 70.977C254.432 68.279 253.627 65.2497 253.627 61.889C253.627 58.481 254.432 55.428 256.041 52.73C257.651 50.032 259.852 47.902 262.644 46.34C265.484 44.7307 268.632 43.926 272.087 43.926C274.785 43.926 277.27 44.423 279.542 45.417C281.814 46.411 283.779 47.831 285.435 49.677L279.471 55.712C278.572 54.718 277.483 53.9607 276.205 53.44C274.975 52.9193 273.602 52.659 272.087 52.659C270.383 52.659 268.845 53.0613 267.472 53.866C266.147 54.6233 265.082 55.6883 264.277 57.061C263.52 58.3863 263.141 59.972 263.141 61.818C263.141 63.6167 263.52 65.226 264.277 66.646C265.082 68.0187 266.147 69.1073 267.472 69.912C268.845 70.6693 270.383 71.048 272.087 71.048C273.649 71.048 275.046 70.7877 276.276 70.267C277.554 69.699 278.643 68.8943 279.542 67.853L285.577 73.888C283.826 75.7813 281.814 77.225 279.542 78.219C277.27 79.213 274.785 79.71 272.087 79.71ZM290.845 79V44.707H300.217V79H290.845ZM295.531 39.169C294.016 39.169 292.762 38.672 291.768 37.678C290.774 36.6367 290.277 35.3587 290.277 33.844C290.277 32.3767 290.774 31.1223 291.768 30.081C292.762 29.0397 294.016 28.519 295.531 28.519C297.093 28.519 298.347 29.0397 299.294 30.081C300.288 31.1223 300.785 32.3767 300.785 33.844C300.785 35.3587 300.288 36.6367 299.294 37.678C298.347 38.672 297.093 39.169 295.531 39.169ZM313.497 79V30.436H322.798V79H313.497ZM305.474 52.872V44.707H330.821V52.872H305.474ZM346.844 79.284L332.502 44.707H342.584L352.098 71.119H348.69L358.559 44.707H368.712L353.447 79.284H346.844ZM337.33 93.342L347.767 71.261L353.447 79.284L347.199 93.342H337.33Z" fill="#EE4000"/>
</svg>
